<svg width="10" height="16" viewBox="0 0 10 16" fill="none" xmlns="http://www.w3.org/2000/svg">
<path d="M1.36353 8.72731C1.36353 7.76288 1.74664 6.83796 2.42859 6.15601C3.11054 5.47406 4.03547 5.09094 4.99989 5.09094C5.96431 5.09094 6.88924 5.47406 7.57119 6.15601C8.25314 6.83796 8.63625 7.76288 8.63625 8.72731V12.3637C8.63625 13.7353 8.63625 14.4204 8.21007 14.8466C7.78389 15.2728 7.0988 15.2728 5.72716 15.2728H4.27262C2.90098 15.2728 2.21589 15.2728 1.78971 14.8466C1.36353 14.4204 1.36353 13.7353 1.36353 12.3637V8.72731Z" stroke="white" stroke-width="1.2" stroke-linecap="round" stroke-linejoin="round"/>
<path d="M3.54534 5.09093V4.36366C3.54534 3.67784 3.54534 3.3353 3.75843 3.1222C3.97153 2.90911 4.31407 2.90911 4.99989 2.90911M4.99989 2.90911C5.68571 2.90911 6.02825 2.90911 6.24134 3.1222C6.45443 3.3353 6.45443 3.67784 6.45443 4.36366V5.09093M4.99989 2.90911V0.727295M4.99989 0.727295H3.54534M4.99989 0.727295H6.99625C7.54692 0.727435 8.07716 0.935792 8.48062 1.31057L8.63625 1.45457M1.36353 8.7273H8.63625" stroke="white" stroke-width="1.2" stroke-linecap="round" stroke-linejoin="round"/>
<rect x="1" y="9" width="8" height="6" rx="1" fill="white"/>
</svg>
